<svg version="1.1"
	xmlns="http://www.w3.org/2000/svg" viewBox="0 0 100 100" height="100%" width="100%">
	<!-- svg-source:excalidraw -->

	<rect x="0" y="0" width="41.35534678764088" height="75.88529114110611" fill="none"></rect>
	<g stroke-linecap="round" transform="translate(16.571989513263816 10) rotate(0 3.406595145520157 4.866564493600265)">
		<path d="M0.78 2 C0.78 2, 0.78 2, 0.78 2 M0.78 2 C0.78 2, 0.78 2, 0.78 2 M1.12 7.06 C2.05 5.58, 3.74 5.36, 5.99 1.5 M0.94 7.88 C2.14 6.44, 3.36 4.72, 6.78 1.26 M3.81 11.4 C5.1 9.72, 5.24 8.87, 7.92 6.87 M3.75 10.9 C4.58 9.8, 5.69 8.56, 7.24 6.65" stroke="currentColor" stroke-width="0.5" fill="none"></path>
		<path d="M4.04 -0.32 C4.8 -0.18, 5.45 1.58, 5.98 2.6 C6.52 3.63, 7.17 4.86, 7.24 5.81 C7.31 6.76, 7.09 7.5, 6.41 8.32 C5.74 9.13, 4.15 10.55, 3.19 10.7 C2.23 10.84, 1.31 10.06, 0.64 9.19 C-0.02 8.32, -0.8 6.68, -0.78 5.49 C-0.76 4.29, 0.17 2.8, 0.76 2.02 C1.35 1.25, 2 1.08, 2.76 0.85 C3.52 0.62, 4.97 0.59, 5.32 0.64 C5.67 0.68, 4.98 1, 4.87 1.12 M2.52 1.38 C3.23 0.58, 4.11 -1.27, 4.64 -0.93 C5.17 -0.6, 5.25 2.18, 5.7 3.39 C6.15 4.61, 7.59 5.68, 7.33 6.38 C7.07 7.07, 4.69 7.04, 4.15 7.56 C3.61 8.08, 4.72 9.57, 4.09 9.49 C3.47 9.41, 1.02 7.56, 0.4 7.09 C-0.22 6.61, 0.41 7.44, 0.36 6.62 C0.31 5.81, -0.1 3.33, 0.12 2.21 C0.34 1.09, 1.55 0.31, 1.68 -0.1 C1.81 -0.51, 0.55 -0.31, 0.91 -0.26" stroke="currentColor" stroke-width="1" fill="none"></path>
	</g>
	<g stroke-linecap="round" transform="translate(17.058645962623814 20.706441885920867) rotate(0 2.919938696160159 14.599693480800738)">
		<path d="M1.14 0.99 C1.14 0.99, 1.14 0.99, 1.14 0.99 M1.14 0.99 C1.14 0.99, 1.14 0.99, 1.14 0.99 M0.37 7.04 C1.81 5.74, 4.35 3.68, 5.37 1.52 M1.08 7.27 C2.65 5.43, 3.97 3.85, 5.17 1.91 M3.49 11.16 C3.88 9.72, 4.81 9.3, 6.12 7.63 M3.16 10.78 C4.25 9.63, 5.25 8.28, 5.96 7.69 M1.08 19.94 C3.43 16.98, 5.37 14.1, 6.91 13.61 M0.98 19.65 C2.72 17.23, 3.84 15.69, 6 13.65 M0.87 24.33 C2.14 23.95, 5.74 20.73, 7.94 17.67 M1.44 24.57 C4.24 22.58, 6.65 19.25, 7.52 17.97" stroke="currentColor" stroke-width="0.5" fill="none"></path>
		<path d="M1.2 0.93 C1.62 -0.29, 3.34 0, 4.07 1.05 C4.81 2.1, 5.37 4.75, 5.63 7.22 C5.9 9.68, 5.63 12.98, 5.67 15.86 C5.72 18.73, 6.25 22.4, 5.9 24.48 C5.56 26.56, 4.44 27.93, 3.58 28.31 C2.73 28.68, 1.46 28.34, 0.78 26.73 C0.1 25.13, -0.49 21.72, -0.49 18.7 C-0.49 15.67, 0.26 11.73, 0.79 8.58 C1.32 5.43, 2.22 1.16, 2.68 -0.22 C3.14 -1.59, 3.51 0.15, 3.56 0.35 M3.65 0.12 C3.8 -0.62, 2.71 -0.24, 3.19 1.51 C3.68 3.27, 6.05 7.81, 6.54 10.67 C7.04 13.53, 6.73 15.76, 6.16 18.69 C5.6 21.62, 3.86 26.69, 3.18 28.27 C2.49 29.84, 2.74 28.86, 2.07 28.13 C1.41 27.41, -0.63 26.32, -0.8 23.92 C-0.97 21.51, 0.8 17, 1.04 13.72 C1.28 10.43, 0.45 6.69, 0.64 4.18 C0.83 1.68, 1.95 -0.9, 2.16 -1.3 C2.38 -1.7, 1.94 1.11, 1.92 1.8" stroke="currentColor" stroke-width="1" fill="none"></path>
	</g>
	<g stroke-linecap="round" transform="translate(11.820309023401023 24.058796162621775) rotate(34.33021719550332 1.831741793702463 5.89411826113917)">
		<path d="M1.88 0.31 C1.88 0.31, 1.88 0.31, 1.88 0.31 M1.88 0.31 C1.88 0.31, 1.88 0.31, 1.88 0.31 M1.43 6.41 C2.39 6.19, 2.91 4.94, 3.91 3.96 M1.56 6.77 C2.5 5.54, 3.58 4.5, 4.14 3.67 M1.96 12.9 C2.17 11.92, 3.91 11.02, 5.12 9.08 M1.38 13.08 C2.23 12.11, 2.79 11.33, 5.21 8.83" stroke="currentColor" stroke-width="0.5" fill="none"></path>
		<path d="M2.38 1.01 C2.87 1.64, 3.67 2.85, 3.99 3.94 C4.3 5.03, 4.55 6.22, 4.29 7.53 C4.04 8.85, 3.03 11.06, 2.46 11.84 C1.9 12.62, 1.38 12.61, 0.91 12.21 C0.43 11.81, -0.29 10.56, -0.38 9.45 C-0.47 8.34, 0.14 6.67, 0.37 5.56 C0.61 4.44, 0.77 3.65, 1.03 2.78 C1.28 1.9, 1.66 0.58, 1.9 0.3 C2.13 0.02, 2.27 0.89, 2.42 1.09 C2.57 1.3, 2.83 1.55, 2.77 1.54 M2.59 -0.72 C2.78 -0.33, 2.52 2.8, 2.79 4.25 C3.06 5.69, 4.4 7.06, 4.19 7.95 C3.97 8.85, 1.8 9.01, 1.51 9.6 C1.22 10.2, 2.74 11.69, 2.45 11.53 C2.17 11.37, 0.14 9.32, -0.21 8.64 C-0.57 7.96, 0.3 8.49, 0.33 7.45 C0.36 6.41, -0.11 3.67, -0.05 2.4 C0.01 1.14, 0.51 0.26, 0.71 -0.15 C0.91 -0.56, 0.62 -0.1, 1.16 -0.05 C1.7 0, 3.52 0.07, 3.96 0.15" stroke="currentColor" stroke-width="1" fill="none"></path>
	</g>
	<g stroke-linecap="round" transform="translate(26.42000250420233 26.492078409421765) rotate(333.434948822922 1.831741793702463 5.89411826113917)">
		<path d="M0.6 1.84 C0.6 1.84, 0.6 1.84, 0.6 1.84 M0.6 1.84 C0.6 1.84, 0.6 1.84, 0.6 1.84 M0.61 7.5 C2.39 6.13, 2.87 4.87, 4.6 3.89 M1.06 7.45 C1.57 6.81, 2.33 5.54, 4.25 3.64" stroke="currentColor" stroke-width="0.5" fill="none"></path>
		<path d="M1.8 0.58 C2.3 0.43, 2.72 0.96, 2.99 1.42 C3.25 1.88, 3.12 2.43, 3.38 3.37 C3.64 4.31, 4.56 5.96, 4.54 7.07 C4.52 8.18, 3.83 9.21, 3.27 10.05 C2.7 10.89, 1.72 12.03, 1.15 12.1 C0.59 12.16, 0 11.39, -0.11 10.46 C-0.22 9.53, 0.37 7.95, 0.49 6.52 C0.6 5.09, 0.31 2.98, 0.56 1.88 C0.81 0.78, 1.68 0.32, 1.99 -0.07 C2.31 -0.47, 2.52 -0.75, 2.44 -0.49 M0.68 -0.69 C1 -0.59, 3.36 1.46, 3.94 2.22 C4.53 2.98, 4.47 2.59, 4.19 3.87 C3.91 5.16, 2.59 8.79, 2.24 9.95 C1.89 11.1, 2.53 10.52, 2.11 10.8 C1.68 11.08, -0.18 12.06, -0.33 11.61 C-0.47 11.17, 1.19 9.42, 1.23 8.13 C1.27 6.83, 0.08 5.25, -0.06 3.85 C-0.2 2.44, 0.16 0.11, 0.4 -0.3 C0.63 -0.71, 1.18 1.1, 1.35 1.38 C1.52 1.66, 1.45 1.31, 1.44 1.39" stroke="currentColor" stroke-width="1" fill="none"></path>
	</g>
	<g stroke-linecap="round" transform="translate(23.06478504705865 46.36935789083827) rotate(345.5297058999342 2.26702055468553 9.376348349003763)">
		<path d="M2.17 0.56 C2.17 0.56, 2.17 0.56, 2.17 0.56 M2.17 0.56 C2.17 0.56, 2.17 0.56, 2.17 0.56 M2.58 6.62 C3.06 5.31, 3.66 4.85, 6.03 2.14 M2.54 6.02 C3.98 4.63, 4.8 3.47, 5.77 2.55 M2.07 12.66 C4.14 11.36, 4.94 9.84, 5.73 8.49 M2.36 12.56 C3.09 11.59, 4.25 10.52, 6.26 8.12" stroke="currentColor" stroke-width="0.5" fill="none"></path>
		<path d="M2.11 0.64 C2.72 -0.08, 3.6 -0.26, 3.91 0.67 C4.22 1.61, 3.98 4.35, 3.96 6.26 C3.94 8.18, 3.99 10.43, 3.79 12.15 C3.58 13.87, 2.95 15.57, 2.73 16.57 C2.51 17.57, 2.7 18.15, 2.47 18.15 C2.24 18.15, 1.67 17.86, 1.33 16.58 C1 15.31, 0.68 12.53, 0.47 10.49 C0.25 8.45, -0.2 6.02, 0.04 4.36 C0.27 2.69, 1.6 1.26, 1.85 0.52 C2.11 -0.22, 1.41 -0.2, 1.57 -0.09 M2.4 1.51 C2.94 2.4, 4.73 4.02, 4.85 5.46 C4.97 6.9, 3.18 8.31, 3.11 10.15 C3.05 11.99, 4.73 15.29, 4.45 16.49 C4.18 17.68, 2.01 17.17, 1.45 17.33 C0.89 17.48, 1.39 18.54, 1.08 17.42 C0.78 16.31, -0.12 12.85, -0.36 10.63 C-0.59 8.41, -0.39 5.9, -0.31 4.11 C-0.24 2.32, -0.69 0.54, 0.11 -0.12 C0.91 -0.78, 3.77 0.1, 4.47 0.15 C5.18 0.2, 4.37 -0.25, 4.34 0.16" stroke="currentColor" stroke-width="1" fill="none"></path>
	</g>
	<g stroke-linecap="round" transform="translate(11.38503026241824 47.3426707895585) rotate(12.528807709151561 2.26702055468553 9.376348349003763)">
		<path d="M2.32 0.69 C2.32 0.69, 2.32 0.69, 2.32 0.69 M2.32 0.69 C2.32 0.69, 2.32 0.69, 2.32 0.69 M0.74 8.92 C1.34 7.17, 3.3 6.61, 4.87 3.79 M-0.2 9.71 C1.12 7.54, 2.83 6.03, 5.52 3.57 M1.23 14.92 C4.09 11.29, 6.63 8.07, 7.67 7.08 M1.07 13.9 C3.18 12.02, 5.13 10.1, 7.11 7.49" stroke="currentColor" stroke-width="0.5" fill="none"></path>
		<path d="M2.21 0.82 C2.58 0.28, 2.77 0.2, 3.29 1.02 C3.82 1.83, 5.12 3.88, 5.38 5.7 C5.64 7.51, 5.26 9.88, 4.85 11.92 C4.45 13.97, 3.54 16.76, 2.94 17.97 C2.34 19.19, 1.57 19.6, 1.25 19.22 C0.92 18.84, 1.16 17.43, 0.98 15.69 C0.8 13.96, 0.19 10.9, 0.17 8.8 C0.14 6.71, 0.42 4.68, 0.81 3.11 C1.2 1.54, 2.31 -0.27, 2.5 -0.61 C2.69 -0.96, 2.02 0.67, 1.97 1.06 M3.1 0.59 C3.86 0.34, 4.2 -0.53, 4.25 0.78 C4.3 2.09, 3.42 6.39, 3.38 8.47 C3.34 10.55, 4.29 11.59, 4 13.26 C3.71 14.93, 1.88 17.73, 1.63 18.49 C1.39 19.25, 2.79 18.67, 2.55 17.83 C2.31 16.99, 0.68 15.38, 0.2 13.47 C-0.28 11.56, -0.32 8.01, -0.32 6.36 C-0.32 4.72, -0.14 4.45, 0.2 3.6 C0.54 2.75, 1.51 1.62, 1.74 1.26 C1.97 0.9, 1.31 1.29, 1.57 1.46" stroke="currentColor" stroke-width="1" fill="none"></path>
	</g>
</svg>